<svg width="231" height="31" viewBox="0 0 231 31" fill="none" xmlns="http://www.w3.org/2000/svg">
<path d="M52.4137 25H46.2923V6.09091H52.6076C54.4603 6.09091 56.0515 6.46946 57.381 7.22656C58.7106 7.97751 59.7293 9.05776 60.4371 10.4673C61.1512 11.8707 61.5082 13.5542 61.5082 15.5178C61.5082 17.4875 61.1481 19.1802 60.4279 20.5959C59.7139 22.0116 58.6798 23.1011 57.3256 23.8643C55.9715 24.6214 54.3342 25 52.4137 25ZM49.1452 22.5071H52.2567C53.6971 22.5071 54.8943 22.2363 55.8484 21.6946C56.8024 21.1468 57.5165 20.3558 57.9904 19.3217C58.4644 18.2815 58.7013 17.0135 58.7013 15.5178C58.7013 14.0343 58.4644 12.7756 57.9904 11.7415C57.5226 10.7074 56.824 9.92258 55.8945 9.38707C54.9651 8.85156 53.811 8.58381 52.4322 8.58381H49.1452V22.5071ZM64.8343 25V10.8182H67.595V25H64.8343ZM66.2285 8.62997C65.7484 8.62997 65.336 8.46993 64.9913 8.14986C64.6528 7.82363 64.4835 7.43584 64.4835 6.9865C64.4835 6.53101 64.6528 6.14323 64.9913 5.82315C65.336 5.49692 65.7484 5.33381 66.2285 5.33381C66.7086 5.33381 67.118 5.49692 67.4565 5.82315C67.8012 6.14323 67.9735 6.53101 67.9735 6.9865C67.9735 7.43584 67.8012 7.82363 67.4565 8.14986C67.118 8.46993 66.7086 8.62997 66.2285 8.62997ZM77.4212 25.2862C76.0239 25.2862 74.8205 24.9877 73.8111 24.3906C72.8078 23.7874 72.0322 22.9411 71.4844 21.8516C70.9427 20.7559 70.6719 19.4725 70.6719 18.0014C70.6719 16.5488 70.9427 15.2685 71.4844 14.1605C72.0322 13.0526 72.7955 12.1877 73.7741 11.5661C74.759 10.9444 75.91 10.6335 77.2273 10.6335C78.0275 10.6335 78.803 10.7659 79.554 11.0305C80.3049 11.2952 80.9789 11.7107 81.576 12.277C82.1731 12.8433 82.6439 13.5788 82.9886 14.4837C83.3333 15.3823 83.5057 16.4749 83.5057 17.7614V18.7401H72.2322V16.6719H80.8004C80.8004 15.9455 80.6527 15.3023 80.3572 14.7422C80.0618 14.1759 79.6463 13.7296 79.1108 13.4034C78.5814 13.0772 77.9598 12.9141 77.2457 12.9141C76.4702 12.9141 75.7931 13.1049 75.2145 13.4865C74.642 13.862 74.1989 14.3544 73.8849 14.9638C73.5772 15.567 73.4233 16.2225 73.4233 16.9304V18.5462C73.4233 19.4941 73.5895 20.3004 73.9219 20.9652C74.2604 21.63 74.7313 22.1378 75.3345 22.4886C75.9377 22.8333 76.6425 23.0057 77.4489 23.0057C77.9721 23.0057 78.4491 22.9318 78.88 22.7841C79.3108 22.6302 79.6832 22.4025 79.9972 22.1009C80.3111 21.7992 80.5511 21.4268 80.7173 20.9837L83.3303 21.4545C83.121 22.224 82.7455 22.898 82.2038 23.4766C81.6683 24.049 80.9943 24.4953 80.1818 24.8153C79.3755 25.1293 78.4553 25.2862 77.4212 25.2862ZM93.6712 25V6.09091H100.411C101.876 6.09091 103.092 6.34328 104.058 6.84801C105.031 7.35275 105.757 8.05137 106.237 8.94389C106.717 9.83026 106.957 10.8551 106.957 12.0185C106.957 13.1757 106.714 14.1944 106.228 15.0746C105.748 15.9486 105.022 16.6288 104.049 17.1151C103.083 17.6013 101.867 17.8445 100.402 17.8445H95.2962V15.3885H100.143C101.067 15.3885 101.818 15.2562 102.396 14.9915C102.981 14.7268 103.409 14.3421 103.68 13.8374C103.951 13.3326 104.086 12.7263 104.086 12.0185C104.086 11.3044 103.947 10.6858 103.67 10.1626C103.4 9.63944 102.972 9.23935 102.387 8.96236C101.808 8.67921 101.048 8.53764 100.107 8.53764H96.5241V25H93.6712ZM103.006 16.4688L107.678 25H104.428L99.848 16.4688H103.006ZM116.142 25.2862C114.745 25.2862 113.541 24.9877 112.532 24.3906C111.528 23.7874 110.753 22.9411 110.205 21.8516C109.663 20.7559 109.393 19.4725 109.393 18.0014C109.393 16.5488 109.663 15.2685 110.205 14.1605C110.753 13.0526 111.516 12.1877 112.495 11.5661C113.48 10.9444 114.631 10.6335 115.948 10.6335C116.748 10.6335 117.524 10.7659 118.275 11.0305C119.026 11.2952 119.7 11.7107 120.297 12.277C120.894 12.8433 121.365 13.5788 121.709 14.4837C122.054 15.3823 122.226 16.4749 122.226 17.7614V18.7401H110.953V16.6719H119.521C119.521 15.9455 119.373 15.3023 119.078 14.7422C118.782 14.1759 118.367 13.7296 117.831 13.4034C117.302 13.0772 116.68 12.9141 115.966 12.9141C115.191 12.9141 114.514 13.1049 113.935 13.4865C113.363 13.862 112.92 14.3544 112.606 14.9638C112.298 15.567 112.144 16.2225 112.144 16.9304V18.5462C112.144 19.4941 112.31 20.3004 112.643 20.9652C112.981 21.63 113.452 22.1378 114.055 22.4886C114.658 22.8333 115.363 23.0057 116.17 23.0057C116.693 23.0057 117.17 22.9318 117.601 22.7841C118.032 22.6302 118.404 22.4025 118.718 22.1009C119.032 21.7992 119.272 21.4268 119.438 20.9837L122.051 21.4545C121.842 22.224 121.466 22.898 120.925 23.4766C120.389 24.049 119.715 24.4953 118.903 24.8153C118.096 25.1293 117.176 25.2862 116.142 25.2862ZM124.994 25V23.1072L132.676 13.348V13.2188H125.243V10.8182H136.12V12.831L128.733 22.4702V22.5994H136.378V25H124.994ZM145.341 25.2862C143.944 25.2862 142.74 24.9877 141.731 24.3906C140.728 23.7874 139.952 22.9411 139.404 21.8516C138.863 20.7559 138.592 19.4725 138.592 18.0014C138.592 16.5488 138.863 15.2685 139.404 14.1605C139.952 13.0526 140.715 12.1877 141.694 11.5661C142.679 10.9444 143.83 10.6335 145.147 10.6335C145.947 10.6335 146.723 10.7659 147.474 11.0305C148.225 11.2952 148.899 11.7107 149.496 12.277C150.093 12.8433 150.564 13.5788 150.909 14.4837C151.253 15.3823 151.426 16.4749 151.426 17.7614V18.7401H140.152V16.6719H148.72C148.72 15.9455 148.573 15.3023 148.277 14.7422C147.982 14.1759 147.566 13.7296 147.031 13.4034C146.501 13.0772 145.88 12.9141 145.166 12.9141C144.39 12.9141 143.713 13.1049 143.134 13.4865C142.562 13.862 142.119 14.3544 141.805 14.9638C141.497 15.567 141.343 16.2225 141.343 16.9304V18.5462C141.343 19.4941 141.509 20.3004 141.842 20.9652C142.18 21.63 142.651 22.1378 143.254 22.4886C143.858 22.8333 144.562 23.0057 145.369 23.0057C145.892 23.0057 146.369 22.9318 146.8 22.7841C147.231 22.6302 147.603 22.4025 147.917 22.1009C148.231 21.7992 148.471 21.4268 148.637 20.9837L151.25 21.4545C151.041 22.224 150.665 22.898 150.124 23.4766C149.588 24.049 148.914 24.4953 148.102 24.8153C147.295 25.1293 146.375 25.2862 145.341 25.2862ZM154.489 30.3182V10.8182H157.185V13.1172H157.415C157.576 12.8217 157.806 12.4801 158.108 12.0923C158.41 11.7045 158.828 11.366 159.364 11.0767C159.899 10.7812 160.607 10.6335 161.487 10.6335C162.632 10.6335 163.654 10.9228 164.553 11.5014C165.451 12.08 166.156 12.9141 166.667 14.0036C167.184 15.093 167.442 16.4041 167.442 17.9368C167.442 19.4695 167.187 20.7836 166.676 21.8793C166.165 22.9687 165.464 23.8089 164.571 24.3999C163.679 24.9846 162.66 25.277 161.515 25.277C160.653 25.277 159.948 25.1323 159.401 24.843C158.859 24.5537 158.434 24.2152 158.126 23.8274C157.819 23.4396 157.582 23.0949 157.415 22.7933H157.249V30.3182H154.489ZM157.194 17.9091C157.194 18.9062 157.339 19.7803 157.628 20.5312C157.917 21.2822 158.336 21.87 158.884 22.2947C159.431 22.7133 160.102 22.9226 160.896 22.9226C161.721 22.9226 162.411 22.7041 162.964 22.267C163.518 21.8239 163.937 21.2237 164.22 20.4666C164.509 19.7095 164.654 18.857 164.654 17.9091C164.654 16.9735 164.513 16.1333 164.229 15.3885C163.952 14.6437 163.534 14.0559 162.974 13.625C162.42 13.1941 161.727 12.9787 160.896 12.9787C160.096 12.9787 159.419 13.1849 158.865 13.5973C158.317 14.0097 157.902 14.5852 157.619 15.3239C157.335 16.0625 157.194 16.9242 157.194 17.9091ZM177.156 10.8182V13.0341H169.409V10.8182H177.156ZM171.487 7.42045H174.247V20.8359C174.247 21.3714 174.327 21.7746 174.487 22.0455C174.647 22.3101 174.853 22.4917 175.106 22.5902C175.364 22.6825 175.644 22.7287 175.946 22.7287C176.168 22.7287 176.362 22.7133 176.528 22.6825C176.694 22.6518 176.823 22.6271 176.915 22.6087L177.414 24.8892C177.254 24.9508 177.026 25.0123 176.731 25.0739C176.435 25.1416 176.066 25.1785 175.623 25.1847C174.897 25.197 174.219 25.0677 173.592 24.7969C172.964 24.526 172.456 24.1075 172.068 23.5412C171.68 22.9749 171.487 22.264 171.487 21.4084V7.42045ZM183.284 25L179.111 10.8182H181.964L184.743 21.233H184.881L187.67 10.8182H190.523L193.292 21.1868H193.431L196.192 10.8182H199.045L194.881 25H192.064L189.184 14.7607H188.971L186.091 25H183.284ZM207.345 25.2862C205.948 25.2862 204.744 24.9877 203.735 24.3906C202.732 23.7874 201.956 22.9411 201.408 21.8516C200.867 20.7559 200.596 19.4725 200.596 18.0014C200.596 16.5488 200.867 15.2685 201.408 14.1605C201.956 13.0526 202.719 12.1877 203.698 11.5661C204.683 10.9444 205.834 10.6335 207.151 10.6335C207.951 10.6335 208.727 10.7659 209.478 11.0305C210.229 11.2952 210.903 11.7107 211.5 12.277C212.097 12.8433 212.568 13.5788 212.912 14.4837C213.257 15.3823 213.43 16.4749 213.43 17.7614V18.7401H202.156V16.6719H210.724C210.724 15.9455 210.577 15.3023 210.281 14.7422C209.986 14.1759 209.57 13.7296 209.035 13.4034C208.505 13.0772 207.884 12.9141 207.17 12.9141C206.394 12.9141 205.717 13.1049 205.138 13.4865C204.566 13.862 204.123 14.3544 203.809 14.9638C203.501 15.567 203.347 16.2225 203.347 16.9304V18.5462C203.347 19.4941 203.513 20.3004 203.846 20.9652C204.184 21.63 204.655 22.1378 205.258 22.4886C205.862 22.8333 206.566 23.0057 207.373 23.0057C207.896 23.0057 208.373 22.9318 208.804 22.7841C209.235 22.6302 209.607 22.4025 209.921 22.1009C210.235 21.7992 210.475 21.4268 210.641 20.9837L213.254 21.4545C213.045 22.224 212.669 22.898 212.128 23.4766C211.592 24.049 210.918 24.4953 210.106 24.8153C209.299 25.1293 208.379 25.2862 207.345 25.2862ZM219.253 6.09091V25H216.493V6.09091H219.253ZM229.587 10.8182V13.0341H221.841V10.8182H229.587ZM223.918 7.42045H226.679V20.8359C226.679 21.3714 226.759 21.7746 226.919 22.0455C227.079 22.3101 227.285 22.4917 227.537 22.5902C227.796 22.6825 228.076 22.7287 228.378 22.7287C228.599 22.7287 228.793 22.7133 228.959 22.6825C229.126 22.6518 229.255 22.6271 229.347 22.6087L229.846 24.8892C229.686 24.9508 229.458 25.0123 229.162 25.0739C228.867 25.1416 228.498 25.1785 228.055 25.1847C227.328 25.197 226.651 25.0677 226.023 24.7969C225.395 24.526 224.888 24.1075 224.5 23.5412C224.112 22.9749 223.918 22.264 223.918 21.4084V7.42045Z" fill="#2C2B2B"/>
<path d="M7 7V3C7 2.73478 7.10536 2.48043 7.29289 2.29289C7.48043 2.10536 7.73478 2 8 2C8.26522 2 8.51957 2.10536 8.70711 2.29289C8.89464 2.48043 9 2.73478 9 3V7C9 7.26522 8.89464 7.51957 8.70711 7.70711C8.51957 7.89464 8.26522 8 8 8C7.73478 8 7.48043 7.89464 7.29289 7.70711C7.10536 7.51957 7 7.26522 7 7ZM12 8C12.2652 8 12.5196 7.89464 12.7071 7.70711C12.8946 7.51957 13 7.26522 13 7V3C13 2.73478 12.8946 2.48043 12.7071 2.29289C12.5196 2.10536 12.2652 2 12 2C11.7348 2 11.4804 2.10536 11.2929 2.29289C11.1054 2.48043 11 2.73478 11 3V7C11 7.26522 11.1054 7.51957 11.2929 7.70711C11.4804 7.89464 11.7348 8 12 8ZM16 8C16.2652 8 16.5196 7.89464 16.7071 7.70711C16.8946 7.51957 17 7.26522 17 7V3C17 2.73478 16.8946 2.48043 16.7071 2.29289C16.5196 2.10536 16.2652 2 16 2C15.7348 2 15.4804 2.10536 15.2929 2.29289C15.1054 2.48043 15 2.73478 15 3V7C15 7.26522 15.1054 7.51957 15.2929 7.70711C15.4804 7.89464 15.7348 8 16 8ZM28 15V16C27.9996 17.2719 27.5145 18.4959 26.6434 19.4227C25.7723 20.3496 24.5807 20.9096 23.3113 20.9888C22.6291 22.9182 21.4678 24.6426 19.9363 26H23C23.2652 26 23.5196 26.1054 23.7071 26.2929C23.8946 26.4804 24 26.7348 24 27C24 27.2652 23.8946 27.5196 23.7071 27.7071C23.5196 27.8946 23.2652 28 23 28H1C0.734784 28 0.48043 27.8946 0.292893 27.7071C0.105357 27.5196 0 27.2652 0 27C0 26.7348 0.105357 26.4804 0.292893 26.2929C0.48043 26.1054 0.734784 26 1 26H4.0675C2.79163 24.8728 1.76937 23.4878 1.06822 21.9364C0.367076 20.385 0.00298857 18.7025 0 17V11C0 10.7348 0.105357 10.4804 0.292893 10.2929C0.48043 10.1054 0.734784 10 1 10H23C24.3261 10 25.5979 10.5268 26.5355 11.4645C27.4732 12.4021 28 13.6739 28 15ZM22 12H2V17C2.00386 18.8776 2.53447 20.7164 3.5315 22.3075C4.52853 23.8985 5.95199 25.1778 7.64 26H16.36C18.048 25.1778 19.4715 23.8985 20.4685 22.3075C21.4655 20.7164 21.9961 18.8776 22 17V12ZM26 15C25.9998 14.3798 25.8074 13.7749 25.4492 13.2685C25.0911 12.7621 24.5848 12.3792 24 12.1725V17C23.9993 17.628 23.9491 18.2549 23.85 18.875C24.4705 18.6917 25.015 18.3127 25.4025 17.7946C25.79 17.2765 25.9996 16.647 26 16V15Z" fill="#2C2B2B"/>
</svg>
